<mxfile host="app.diagrams.net" agent="Mozilla/5.0 (Windows NT 10.0; Win64; x64) AppleWebKit/537.36 (KHTML, like Gecko) Chrome/128.0.0.0 Safari/537.36" version="24.7.16">
  <diagram name="Page-1" id="s9wrFr4sL66EJGjSYaef">
    <mxGraphModel dx="1434" dy="892" grid="1" gridSize="10" guides="1" tooltips="1" connect="1" arrows="1" fold="1" page="1" pageScale="1" pageWidth="827" pageHeight="1169" math="0" shadow="0">
      <root>
        <mxCell id="0" />
        <mxCell id="1" parent="0" />
        <mxCell id="UZXjeuGDqJ0_YfnLbZaC-9" value="&lt;h2 style=&quot;margin: 24px 0px 12px; padding: 0px; font-size: 24px; line-height: 32px; font-family: BlinkMacSystemFont, -apple-system, &amp;quot;Segoe UI&amp;quot;, Roboto, Helvetica, Arial, sans-serif; position: relative; break-after: avoid; color: rgb(49, 49, 48); text-align: start; background-color: rgb(255, 255, 255);&quot;&gt;&lt;a style=&quot;color: rgb(102, 102, 102); outline: 0px; font: inherit;&quot; href=&quot;https://javascript.info/hello-world#external-scripts&quot; name=&quot;external-scripts&quot; class=&quot;main__anchor&quot;&gt;External scripts&lt;/a&gt;&lt;/h2&gt;" style="swimlane;childLayout=stackLayout;horizontal=1;startSize=50;horizontalStack=0;rounded=1;fontSize=14;fontStyle=0;strokeWidth=2;resizeParent=0;resizeLast=1;shadow=0;dashed=0;align=center;arcSize=4;whiteSpace=wrap;html=1;fillColor=#3399FF;" parent="1" vertex="1">
          <mxGeometry x="160" y="240" width="800" height="560" as="geometry" />
        </mxCell>
        <mxCell id="UZXjeuGDqJ0_YfnLbZaC-10" value="&lt;b&gt;&lt;code style=&quot;font-family: Consolas, &amp;quot;Lucida Console&amp;quot;, Menlo, Monaco, monospace; padding: 0px; background-image: inherit; background-position: inherit; background-size: inherit; background-repeat: inherit; background-attachment: inherit; background-origin: inherit; background-clip: inherit; background-color: rgb(247, 244, 243); border-radius: 2px; color: var(--prismTokenSymbols); font-size: 16px; white-space-collapse: preserve;&quot; class=&quot;token tag&quot;&gt;&lt;code style=&quot;font-family: Consolas, &amp;quot;Lucida Console&amp;quot;, Menlo, Monaco, monospace; padding: 0px; background: inherit; border-radius: 2px; color: var(--prismTokenSymbols);&quot; class=&quot;token tag&quot;&gt;&lt;code style=&quot;font-family: Consolas, &amp;quot;Lucida Console&amp;quot;, Menlo, Monaco, monospace; padding: 0px; background: inherit; border-radius: 2px; color: var(--prismTokenPunctuation);&quot; class=&quot;token punctuation&quot;&gt;&amp;lt;&lt;/code&gt;script&lt;/code&gt; &lt;code style=&quot;font-family: Consolas, &amp;quot;Lucida Console&amp;quot;, Menlo, Monaco, monospace; padding: 0px; background: inherit; border-radius: 2px; color: var(--prismTokenInterpolation);&quot; class=&quot;token attr-name&quot;&gt;src&lt;/code&gt;&lt;code style=&quot;font-family: Consolas, &amp;quot;Lucida Console&amp;quot;, Menlo, Monaco, monospace; padding: 0px; background: inherit; border-radius: 2px; color: var(--prismTokenAttrvalue);&quot; class=&quot;token attr-value&quot;&gt;&lt;code style=&quot;font-family: Consolas, &amp;quot;Lucida Console&amp;quot;, Menlo, Monaco, monospace; padding: 0px; background: inherit; border-radius: 2px; color: rgb(212, 212, 212);&quot; class=&quot;token punctuation attr-equals&quot;&gt;=&lt;/code&gt;&lt;code style=&quot;font-family: Consolas, &amp;quot;Lucida Console&amp;quot;, Menlo, Monaco, monospace; padding: 0px; background: inherit; border-radius: 2px; color: var(--prismTokenAttrvalue);&quot; class=&quot;token punctuation&quot;&gt;&quot;&lt;/code&gt;/path/to/script.js&lt;code style=&quot;font-family: Consolas, &amp;quot;Lucida Console&amp;quot;, Menlo, Monaco, monospace; padding: 0px; background: inherit; border-radius: 2px; color: var(--prismTokenAttrvalue);&quot; class=&quot;token punctuation&quot;&gt;&quot;&lt;/code&gt;&lt;/code&gt;&lt;code style=&quot;font-family: Consolas, &amp;quot;Lucida Console&amp;quot;, Menlo, Monaco, monospace; padding: 0px; background: inherit; border-radius: 2px; color: var(--prismTokenPunctuation);&quot; class=&quot;token punctuation&quot;&gt;&amp;gt;&lt;/code&gt;&lt;/code&gt;&lt;code style=&quot;font-family: Consolas, &amp;quot;Lucida Console&amp;quot;, Menlo, Monaco, monospace; padding: 0px; background-image: inherit; background-position: inherit; background-size: inherit; background-repeat: inherit; background-attachment: inherit; background-origin: inherit; background-clip: inherit; background-color: rgb(247, 244, 243); border-radius: 2px; color: var(--foregroundAlt); font-size: 16px; white-space-collapse: preserve;&quot; class=&quot;token script&quot;&gt;&lt;/code&gt;&lt;code style=&quot;font-family: Consolas, &amp;quot;Lucida Console&amp;quot;, Menlo, Monaco, monospace; padding: 0px; background-image: inherit; background-position: inherit; background-size: inherit; background-repeat: inherit; background-attachment: inherit; background-origin: inherit; background-clip: inherit; background-color: rgb(247, 244, 243); border-radius: 2px; color: var(--prismTokenSymbols); font-size: 16px; white-space-collapse: preserve;&quot; class=&quot;token tag&quot;&gt;&lt;code style=&quot;font-family: Consolas, &amp;quot;Lucida Console&amp;quot;, Menlo, Monaco, monospace; padding: 0px; background: inherit; border-radius: 2px; color: var(--prismTokenSymbols);&quot; class=&quot;token tag&quot;&gt;&lt;code style=&quot;font-family: Consolas, &amp;quot;Lucida Console&amp;quot;, Menlo, Monaco, monospace; padding: 0px; background: inherit; border-radius: 2px; color: var(--prismTokenPunctuation);&quot; class=&quot;token punctuation&quot;&gt;&amp;lt;/&lt;/code&gt;script&lt;/code&gt;&lt;code style=&quot;font-family: Consolas, &amp;quot;Lucida Console&amp;quot;, Menlo, Monaco, monospace; padding: 0px; background: inherit; border-radius: 2px; color: var(--prismTokenPunctuation);&quot; class=&quot;token punctuation&quot;&gt;&amp;gt;&lt;/code&gt;&lt;/code&gt;&lt;/b&gt;&lt;div&gt;&lt;code style=&quot;font-family: Consolas, &amp;quot;Lucida Console&amp;quot;, Menlo, Monaco, monospace; padding: 0px; background-image: inherit; background-position: inherit; background-size: inherit; background-repeat: inherit; background-attachment: inherit; background-origin: inherit; background-clip: inherit; background-color: rgb(247, 244, 243); border-radius: 2px; color: var(--prismTokenSymbols); font-size: 16px; white-space-collapse: preserve;&quot; class=&quot;token tag&quot;&gt;&lt;code style=&quot;font-family: Consolas, &amp;quot;Lucida Console&amp;quot;, Menlo, Monaco, monospace; padding: 0px; background: inherit; border-radius: 2px; color: var(--prismTokenPunctuation);&quot; class=&quot;token punctuation&quot;&gt;&lt;br&gt;&lt;span style=&quot;color: rgb(49, 49, 48); font-family: BlinkMacSystemFont, -apple-system, &amp;quot;Segoe UI&amp;quot;, Roboto, Helvetica, Arial, sans-serif; white-space: normal; background-color: rgb(255, 255, 255);&quot;&gt;Here,&amp;nbsp;&lt;/span&gt;&lt;code style=&quot;font-family: Consolas, &amp;quot;Lucida Console&amp;quot;, Menlo, Monaco, monospace; padding: 2px 4px; background: var(--prismBlockBg); border-radius: 2px; color: var(--foregroundAlt); white-space: normal;&quot;&gt;/path/to/script.js&lt;/code&gt;&lt;span style=&quot;color: rgb(49, 49, 48); font-family: BlinkMacSystemFont, -apple-system, &amp;quot;Segoe UI&amp;quot;, Roboto, Helvetica, Arial, sans-serif; white-space: normal; background-color: rgb(255, 255, 255);&quot;&gt;&amp;nbsp;is an absolute path to the script from the&lt;/span&gt;&lt;/code&gt;&lt;/code&gt;&lt;div&gt;&lt;code style=&quot;font-family: Consolas, &amp;quot;Lucida Console&amp;quot;, Menlo, Monaco, monospace; padding: 0px; background-image: inherit; background-position: inherit; background-size: inherit; background-repeat: inherit; background-attachment: inherit; background-origin: inherit; background-clip: inherit; background-color: rgb(247, 244, 243); border-radius: 2px; color: var(--prismTokenSymbols); font-size: 16px; white-space-collapse: preserve;&quot; class=&quot;token tag&quot;&gt;&lt;code style=&quot;font-family: Consolas, &amp;quot;Lucida Console&amp;quot;, Menlo, Monaco, monospace; padding: 0px; background: inherit; border-radius: 2px; color: var(--prismTokenPunctuation);&quot; class=&quot;token punctuation&quot;&gt;&lt;span style=&quot;color: rgb(49, 49, 48); font-family: BlinkMacSystemFont, -apple-system, &amp;quot;Segoe UI&amp;quot;, Roboto, Helvetica, Arial, sans-serif; white-space: normal; background-color: rgb(255, 255, 255);&quot;&gt;&amp;nbsp;site root. One can also provide a relative path from the current page.&amp;nbsp;&lt;/span&gt;&lt;/code&gt;&lt;/code&gt;&lt;/div&gt;&lt;div&gt;&lt;code style=&quot;font-family: Consolas, &amp;quot;Lucida Console&amp;quot;, Menlo, Monaco, monospace; padding: 0px; background-image: inherit; background-position: inherit; background-size: inherit; background-repeat: inherit; background-attachment: inherit; background-origin: inherit; background-clip: inherit; background-color: rgb(247, 244, 243); border-radius: 2px; color: var(--prismTokenSymbols); font-size: 16px; white-space-collapse: preserve;&quot; class=&quot;token tag&quot;&gt;&lt;code style=&quot;font-family: Consolas, &amp;quot;Lucida Console&amp;quot;, Menlo, Monaco, monospace; padding: 0px; background: inherit; border-radius: 2px; color: var(--prismTokenPunctuation);&quot; class=&quot;token punctuation&quot;&gt;&lt;span style=&quot;color: rgb(49, 49, 48); font-family: BlinkMacSystemFont, -apple-system, &amp;quot;Segoe UI&amp;quot;, Roboto, Helvetica, Arial, sans-serif; white-space: normal; background-color: rgb(255, 255, 255);&quot;&gt;For instance,&amp;nbsp;&lt;/span&gt;&lt;code style=&quot;font-family: Consolas, &amp;quot;Lucida Console&amp;quot;, Menlo, Monaco, monospace; padding: 2px 4px; background: var(--prismBlockBg); border-radius: 2px; color: var(--foregroundAlt); white-space: normal;&quot;&gt;src=&quot;script.js&quot;&lt;/code&gt;&lt;span style=&quot;color: rgb(49, 49, 48); font-family: BlinkMacSystemFont, -apple-system, &amp;quot;Segoe UI&amp;quot;, Roboto, Helvetica, Arial, sans-serif; white-space: normal; background-color: rgb(255, 255, 255);&quot;&gt;, just like&amp;nbsp;&lt;/span&gt;&lt;code style=&quot;font-family: Consolas, &amp;quot;Lucida Console&amp;quot;, Menlo, Monaco, monospace; padding: 2px 4px; background: var(--prismBlockBg); border-radius: 2px; color: var(--foregroundAlt); white-space: normal;&quot;&gt;src=&quot;./script.js&quot;&lt;/code&gt;&lt;span style=&quot;color: rgb(49, 49, 48); font-family: BlinkMacSystemFont, -apple-system, &amp;quot;Segoe UI&amp;quot;, Roboto, Helvetica, Arial, sans-serif; white-space: normal; background-color: rgb(255, 255, 255);&quot;&gt;,&lt;/span&gt;&lt;/code&gt;&lt;/code&gt;&lt;/div&gt;&lt;div&gt;&lt;code style=&quot;font-family: Consolas, &amp;quot;Lucida Console&amp;quot;, Menlo, Monaco, monospace; padding: 0px; background-image: inherit; background-position: inherit; background-size: inherit; background-repeat: inherit; background-attachment: inherit; background-origin: inherit; background-clip: inherit; background-color: rgb(247, 244, 243); border-radius: 2px; color: var(--prismTokenSymbols); font-size: 16px; white-space-collapse: preserve;&quot; class=&quot;token tag&quot;&gt;&lt;code style=&quot;font-family: Consolas, &amp;quot;Lucida Console&amp;quot;, Menlo, Monaco, monospace; padding: 0px; background: inherit; border-radius: 2px; color: var(--prismTokenPunctuation);&quot; class=&quot;token punctuation&quot;&gt;&lt;span style=&quot;color: rgb(49, 49, 48); font-family: BlinkMacSystemFont, -apple-system, &amp;quot;Segoe UI&amp;quot;, Roboto, Helvetica, Arial, sans-serif; white-space: normal; background-color: rgb(255, 255, 255);&quot;&gt;&amp;nbsp;would mean a file&amp;nbsp;&lt;/span&gt;&lt;code style=&quot;font-family: Consolas, &amp;quot;Lucida Console&amp;quot;, Menlo, Monaco, monospace; padding: 2px 4px; background: var(--prismBlockBg); border-radius: 2px; color: var(--foregroundAlt); white-space: normal;&quot;&gt;&quot;script.js&quot;&lt;/code&gt;&lt;span style=&quot;color: rgb(49, 49, 48); font-family: BlinkMacSystemFont, -apple-system, &amp;quot;Segoe UI&amp;quot;, Roboto, Helvetica, Arial, sans-serif; white-space: normal; background-color: rgb(255, 255, 255);&quot;&gt;&amp;nbsp;in the current folder.&lt;/span&gt;&lt;br&gt;&lt;/code&gt;&lt;/code&gt;&lt;/div&gt;&lt;/div&gt;&lt;div&gt;&lt;code style=&quot;font-family: Consolas, &amp;quot;Lucida Console&amp;quot;, Menlo, Monaco, monospace; padding: 0px; background-image: inherit; background-position: inherit; background-size: inherit; background-repeat: inherit; background-attachment: inherit; background-origin: inherit; background-clip: inherit; background-color: rgb(247, 244, 243); border-radius: 2px; color: var(--prismTokenSymbols); font-size: 16px; white-space-collapse: preserve;&quot; class=&quot;token tag&quot;&gt;&lt;code style=&quot;font-family: Consolas, &amp;quot;Lucida Console&amp;quot;, Menlo, Monaco, monospace; padding: 0px; background: inherit; border-radius: 2px; color: var(--prismTokenPunctuation);&quot; class=&quot;token punctuation&quot;&gt;&lt;span style=&quot;color: rgb(49, 49, 48); font-family: BlinkMacSystemFont, -apple-system, &amp;quot;Segoe UI&amp;quot;, Roboto, Helvetica, Arial, sans-serif; white-space: normal; background-color: rgb(255, 255, 255);&quot;&gt;&lt;br&gt;&lt;/span&gt;&lt;/code&gt;&lt;/code&gt;&lt;/div&gt;&lt;div&gt;&lt;code style=&quot;font-family: Consolas, &amp;quot;Lucida Console&amp;quot;, Menlo, Monaco, monospace; padding: 0px; background-image: inherit; background-position: inherit; background-size: inherit; background-repeat: inherit; background-attachment: inherit; background-origin: inherit; background-clip: inherit; background-color: rgb(247, 244, 243); border-radius: 2px; color: var(--prismTokenSymbols); font-size: 16px; white-space-collapse: preserve;&quot; class=&quot;token tag&quot;&gt;&lt;code style=&quot;font-family: Consolas, &amp;quot;Lucida Console&amp;quot;, Menlo, Monaco, monospace; padding: 0px; background: inherit; border-radius: 2px; color: var(--prismTokenPunctuation);&quot; class=&quot;token punctuation&quot;&gt;&lt;span style=&quot;color: rgb(49, 49, 48); font-family: BlinkMacSystemFont, -apple-system, &amp;quot;Segoe UI&amp;quot;, Roboto, Helvetica, Arial, sans-serif; white-space: normal; background-color: rgb(255, 255, 255);&quot;&gt;A single&amp;nbsp;&lt;/span&gt;&lt;code style=&quot;font-family: Consolas, &amp;quot;Lucida Console&amp;quot;, Menlo, Monaco, monospace; padding: 2px 4px; background: var(--prismBlockBg); border-radius: 2px; color: var(--foregroundAlt); white-space: normal;&quot;&gt;&amp;lt;script&amp;gt;&lt;/code&gt;&lt;span style=&quot;color: rgb(49, 49, 48); font-family: BlinkMacSystemFont, -apple-system, &amp;quot;Segoe UI&amp;quot;, Roboto, Helvetica, Arial, sans-serif; white-space: normal; background-color: rgb(255, 255, 255);&quot;&gt;&amp;nbsp;tag can’t have both the&amp;nbsp;&lt;/span&gt;&lt;code style=&quot;font-family: Consolas, &amp;quot;Lucida Console&amp;quot;, Menlo, Monaco, monospace; padding: 2px 4px; background: var(--prismBlockBg); border-radius: 2px; color: var(--foregroundAlt); white-space: normal;&quot;&gt;src&lt;/code&gt;&lt;span style=&quot;color: rgb(49, 49, 48); font-family: BlinkMacSystemFont, -apple-system, &amp;quot;Segoe UI&amp;quot;, Roboto, Helvetica, Arial, sans-serif; white-space: normal; background-color: rgb(255, 255, 255);&quot;&gt;&amp;nbsp;attribute and code inside.&lt;/span&gt;&lt;span style=&quot;color: rgb(49, 49, 48); font-family: BlinkMacSystemFont, -apple-system, &amp;quot;Segoe UI&amp;quot;, Roboto, Helvetica, Arial, sans-serif; white-space: normal; background-color: rgb(255, 255, 255);&quot;&gt;&lt;br&gt;&lt;/span&gt;&lt;/code&gt;&lt;/code&gt;&lt;/div&gt;&lt;div&gt;&lt;code style=&quot;font-family: Consolas, &amp;quot;Lucida Console&amp;quot;, Menlo, Monaco, monospace; padding: 0px; background-image: inherit; background-position: inherit; background-size: inherit; background-repeat: inherit; background-attachment: inherit; background-origin: inherit; background-clip: inherit; background-color: rgb(247, 244, 243); border-radius: 2px; color: var(--prismTokenSymbols); font-size: 16px; white-space-collapse: preserve;&quot; class=&quot;token tag&quot;&gt;&lt;code style=&quot;font-family: Consolas, &amp;quot;Lucida Console&amp;quot;, Menlo, Monaco, monospace; padding: 0px; background: inherit; border-radius: 2px; color: var(--prismTokenPunctuation);&quot; class=&quot;token punctuation&quot;&gt;&lt;p style=&quot;margin: 0px 0px 12px; padding: 0px; color: rgb(49, 49, 48); font-family: BlinkMacSystemFont, -apple-system, &amp;quot;Segoe UI&amp;quot;, Roboto, Helvetica, Arial, sans-serif; white-space: normal; background-color: rgb(255, 255, 255);&quot;&gt;&lt;br&gt;&lt;/p&gt;&lt;p style=&quot;margin: 0px 0px 12px; padding: 0px; color: rgb(49, 49, 48); font-family: BlinkMacSystemFont, -apple-system, &amp;quot;Segoe UI&amp;quot;, Roboto, Helvetica, Arial, sans-serif; white-space: normal; background-color: rgb(255, 255, 255);&quot;&gt;&lt;b&gt;This won’t work:&lt;/b&gt;&lt;/p&gt;&lt;p style=&quot;margin: 0px 0px 12px; padding: 0px; color: rgb(49, 49, 48); font-family: BlinkMacSystemFont, -apple-system, &amp;quot;Segoe UI&amp;quot;, Roboto, Helvetica, Arial, sans-serif; white-space: normal; background-color: rgb(255, 255, 255);&quot;&gt;&lt;code style=&quot;background: inherit; color: var(--prismTokenSymbols); letter-spacing: -1px; word-spacing: normal; font-family: Consolas, &amp;quot;Lucida Console&amp;quot;, Menlo, Monaco, monospace; padding: 0px; border-radius: 2px;&quot; class=&quot;token tag&quot;&gt;&lt;code style=&quot;font-family: Consolas, &amp;quot;Lucida Console&amp;quot;, Menlo, Monaco, monospace; padding: 0px; background: inherit; border-radius: 2px; color: var(--prismTokenPunctuation);&quot; class=&quot;token punctuation&quot;&gt;&amp;lt;&lt;/code&gt;script&lt;/code&gt;&lt;span style=&quot;background-color: inherit; color: var(--prismTokenSymbols); letter-spacing: -1px; font-family: Consolas, &amp;quot;Lucida Console&amp;quot;, Menlo, Monaco, monospace; word-spacing: normal;&quot;&gt; &lt;/span&gt;&lt;code style=&quot;background: inherit; color: var(--prismTokenInterpolation); letter-spacing: -1px; word-spacing: normal; font-family: Consolas, &amp;quot;Lucida Console&amp;quot;, Menlo, Monaco, monospace; padding: 0px; border-radius: 2px;&quot; class=&quot;token attr-name&quot;&gt;&lt;span style=&quot;border: 1px solid var(--borderPrismLineHighlight); display: inline-block; pointer-events: none; line-height: inherit; background: var(--backgroundPrismLineHighlight) !important;&quot; class=&quot;inline-highlight&quot;&gt;src&lt;/span&gt;&lt;/code&gt;&lt;code style=&quot;background: inherit; color: var(--prismTokenAttrvalue); letter-spacing: -1px; word-spacing: normal; font-family: Consolas, &amp;quot;Lucida Console&amp;quot;, Menlo, Monaco, monospace; padding: 0px; border-radius: 2px;&quot; class=&quot;token attr-value&quot;&gt;&lt;code style=&quot;font-family: Consolas, &amp;quot;Lucida Console&amp;quot;, Menlo, Monaco, monospace; padding: 0px; background: inherit; border-radius: 2px; color: rgb(212, 212, 212);&quot; class=&quot;token punctuation attr-equals&quot;&gt;=&lt;/code&gt;&lt;code style=&quot;font-family: Consolas, &amp;quot;Lucida Console&amp;quot;, Menlo, Monaco, monospace; padding: 0px; background: inherit; border-radius: 2px; color: var(--prismTokenAttrvalue);&quot; class=&quot;token punctuation&quot;&gt;&quot;&lt;/code&gt;file.js&lt;code style=&quot;font-family: Consolas, &amp;quot;Lucida Console&amp;quot;, Menlo, Monaco, monospace; padding: 0px; background: inherit; border-radius: 2px; color: var(--prismTokenAttrvalue);&quot; class=&quot;token punctuation&quot;&gt;&quot;&lt;/code&gt;&lt;/code&gt;&lt;code style=&quot;background: inherit; color: var(--prismTokenPunctuation); letter-spacing: -1px; word-spacing: normal; font-family: Consolas, &amp;quot;Lucida Console&amp;quot;, Menlo, Monaco, monospace; padding: 0px; border-radius: 2px;&quot; class=&quot;token punctuation&quot;&gt;&amp;gt;&lt;/code&gt;&lt;/p&gt;&lt;p style=&quot;margin: 0px 0px 12px; padding: 0px; color: rgb(49, 49, 48); font-family: BlinkMacSystemFont, -apple-system, &amp;quot;Segoe UI&amp;quot;, Roboto, Helvetica, Arial, sans-serif; white-space: normal; background-color: rgb(255, 255, 255);&quot;&gt;&lt;code style=&quot;background: inherit; letter-spacing: -1px; word-spacing: normal; color: var(--prismTokenFunctionAndClassname); font-family: Consolas, &amp;quot;Lucida Console&amp;quot;, Menlo, Monaco, monospace; padding: 0px; border-radius: 2px;&quot; class=&quot;token function&quot;&gt;alert&lt;/code&gt;&lt;code style=&quot;background: inherit; letter-spacing: -1px; word-spacing: normal; color: var(--prismTokenPunctuation); font-family: Consolas, &amp;quot;Lucida Console&amp;quot;, Menlo, Monaco, monospace; padding: 0px; border-radius: 2px;&quot; class=&quot;token punctuation&quot;&gt;(&lt;/code&gt;&lt;code style=&quot;background: inherit; letter-spacing: -1px; word-spacing: normal; color: var(--prismTokenSymbols); font-family: Consolas, &amp;quot;Lucida Console&amp;quot;, Menlo, Monaco, monospace; padding: 0px; border-radius: 2px;&quot; class=&quot;token number&quot;&gt;1&lt;/code&gt;&lt;code style=&quot;background: inherit; letter-spacing: -1px; word-spacing: normal; color: var(--prismTokenPunctuation); font-family: Consolas, &amp;quot;Lucida Console&amp;quot;, Menlo, Monaco, monospace; padding: 0px; border-radius: 2px;&quot; class=&quot;token punctuation&quot;&gt;)&lt;/code&gt;&lt;code style=&quot;background: inherit; letter-spacing: -1px; word-spacing: normal; color: var(--prismTokenPunctuation); font-family: Consolas, &amp;quot;Lucida Console&amp;quot;, Menlo, Monaco, monospace; padding: 0px; border-radius: 2px;&quot; class=&quot;token punctuation&quot;&gt;;&lt;/code&gt;&lt;span style=&quot;background-color: inherit; letter-spacing: -1px; font-family: Consolas, &amp;quot;Lucida Console&amp;quot;, Menlo, Monaco, monospace; word-spacing: normal; color: var(--prismColor);&quot;&gt; &lt;/span&gt;&lt;code style=&quot;background: inherit; letter-spacing: -1px; word-spacing: normal; color: var(--prismTokenComment); font-family: Consolas, &amp;quot;Lucida Console&amp;quot;, Menlo, Monaco, monospace; padding: 0px; border-radius: 2px;&quot; class=&quot;token comment&quot;&gt;// the content is ignored, because src is set&lt;/code&gt;&lt;/p&gt;&lt;p style=&quot;margin: 0px 0px 12px; padding: 0px; color: rgb(49, 49, 48); font-family: BlinkMacSystemFont, -apple-system, &amp;quot;Segoe UI&amp;quot;, Roboto, Helvetica, Arial, sans-serif; white-space: normal; background-color: rgb(255, 255, 255);&quot;&gt;&lt;code style=&quot;background: inherit; letter-spacing: -1px; word-spacing: normal; color: var(--prismTokenSymbols); font-family: Consolas, &amp;quot;Lucida Console&amp;quot;, Menlo, Monaco, monospace; padding: 0px; border-radius: 2px;&quot; class=&quot;token tag&quot;&gt;&lt;code style=&quot;font-family: Consolas, &amp;quot;Lucida Console&amp;quot;, Menlo, Monaco, monospace; padding: 0px; background: inherit; border-radius: 2px; color: var(--prismTokenPunctuation);&quot; class=&quot;token punctuation&quot;&gt;&amp;lt;/&lt;/code&gt;script&lt;/code&gt;&lt;code style=&quot;background: inherit; letter-spacing: -1px; word-spacing: normal; color: var(--prismTokenPunctuation); font-family: Consolas, &amp;quot;Lucida Console&amp;quot;, Menlo, Monaco, monospace; padding: 0px; border-radius: 2px;&quot; class=&quot;token punctuation&quot;&gt;&amp;gt;&lt;/code&gt;&lt;/p&gt;&lt;div style=&quot;margin: 22px 0px; color: rgb(49, 49, 48); font-family: BlinkMacSystemFont, -apple-system, &amp;quot;Segoe UI&amp;quot;, Roboto, Helvetica, Arial, sans-serif; white-space: normal; background-color: rgb(255, 255, 255);&quot; data-prism-highlighted=&quot;1&quot; data-highlight=&quot;[{&amp;quot;start&amp;quot;:0,&amp;quot;cols&amp;quot;:[{&amp;quot;start&amp;quot;:8,&amp;quot;end&amp;quot;:11}]}]&quot; class=&quot;code-example&quot; data-trusted=&quot;1&quot; id=&quot;wdaxo7xw9t&quot;&gt;&lt;div style=&quot;width: 746px; height: 100px; position: relative; margin: 1.5em 0px 0px; overflow: auto;&quot; class=&quot;codebox code-example__codebox&quot;&gt;&lt;div style=&quot;width: 746px; height: 100px;&quot; data-code=&quot;1&quot; class=&quot;codebox__code&quot;&gt;&lt;pre style=&quot;margin-top: 0px; margin-bottom: 0px; padding: 0px; box-sizing: border-box; width: 746px; height: 100px; font-variant-numeric: normal; font-variant-east-asian: normal; font-variant-alternates: normal; font-size-adjust: none; font-kerning: auto; font-optical-sizing: auto; font-feature-settings: normal; font-variation-settings: normal; font-variant-position: normal; font-stretch: normal; line-height: 22px; font-family: Consolas, &amp;quot;Lucida Console&amp;quot;, Menlo, Monaco, monospace; direction: ltr; word-spacing: normal; tab-size: 4; hyphens: none; overflow: auto; background: var(--prismBlockBg); counter-reset: e 0; display: flex; flex-direction: row; z-index: 0; text-shadow: none;&quot; tabindex=&quot;0&quot; class=&quot;line-numbers language-markup&quot;&gt;&lt;span style=&quot;pointer-events: none; width: auto; letter-spacing: -1px; border: 0px; user-select: none; padding: 1em 0px 0.8em; background: var(--prismLineNumbersBg);&quot; class=&quot;line-numbers-rows&quot;&gt;&lt;span style=&quot;pointer-events: none; display: block; counter-increment: e 1;&quot;&gt;&lt;/span&gt;&lt;/span&gt;&lt;/pre&gt;&lt;/div&gt;&lt;/div&gt;&lt;/div&gt;&lt;/code&gt;&lt;/code&gt;&lt;/div&gt;" style="align=left;strokeColor=none;fillColor=none;spacingLeft=4;fontSize=12;verticalAlign=top;resizable=0;rotatable=0;part=1;html=1;" parent="UZXjeuGDqJ0_YfnLbZaC-9" vertex="1">
          <mxGeometry y="50" width="800" height="510" as="geometry" />
        </mxCell>
      </root>
    </mxGraphModel>
  </diagram>
</mxfile>
